<?xml version="1.0" encoding="UTF-8" standalone="no"?>
<svg
   width="472"
   height="158"
   viewBox="0 0 472 158"
   fill="none"
   version="1.1"
   id="svg18"
   xml:space="preserve"
   xmlns="http://www.w3.org/2000/svg"
   xmlns:svg="http://www.w3.org/2000/svg"><defs
     id="defs18" /><rect
     x="203.10298"
     y="41.701286"
     width="22.1453"
     height="20.7141"
     rx="2.63433"
     fill="#7592ff"
     stroke="#7592ff"
     stroke-width="0.752667"
     id="rect1" /><rect
     x="246.75198"
     y="41.701286"
     width="22.1453"
     height="20.7141"
     rx="2.63433"
     fill="#7592ff"
     stroke="#7592ff"
     stroke-width="0.752667"
     id="rect2" /><rect
     x="258.20096"
     y="98.230583"
     width="22.1453"
     height="20.7141"
     rx="2.63433"
     fill="#7592ff"
     stroke="#7592ff"
     stroke-width="0.752667"
     id="rect3" /><rect
     x="191.65399"
     y="98.230583"
     width="22.1453"
     height="20.7141"
     rx="2.63433"
     fill="#7592ff"
     stroke="#7592ff"
     stroke-width="0.752667"
     id="rect4" /><rect
     x="207.39598"
     y="82.846786"
     width="57.565498"
     height="20.7141"
     rx="2.63433"
     fill="#7592ff"
     stroke="#7592ff"
     stroke-width="0.752667"
     id="rect5" /><rect
     x="152.76898"
     y="15.166785"
     width="166.46201"
     height="130.311"
     rx="28"
     stroke="#7592ff"
     stroke-width="24"
     id="rect6"
     style="fill:none" /><rect
     x="0.040506341"
     y="0.52224672"
     width="32.6255"
     height="77.595703"
     rx="6.2627101"
     fill="#7592ff"
     id="rect7" /><rect
     x="0.040506341"
     y="0.52224672"
     width="32.6255"
     height="77.595703"
     rx="6.2627101"
     stroke="#7592ff"
     id="rect8"
     style="fill:none" /><rect
     x="75.872574"
     y="3.1677556"
     width="32.6255"
     height="154.31"
     rx="6.2627101"
     fill="#7592ff"
     id="rect9" /><rect
     x="75.872574"
     y="3.1677556"
     width="32.6255"
     height="154.31"
     rx="6.2627101"
     stroke="#7592ff"
     id="rect10"
     style="fill:none" /><rect
     x="-91.343582"
     y="16.793882"
     width="32.6255"
     height="77.595703"
     rx="6.2627101"
     transform="rotate(-90)"
     fill="#7592ff"
     id="rect11" /><rect
     x="-91.343582"
     y="16.793882"
     width="32.6255"
     height="77.595703"
     rx="6.2627101"
     transform="rotate(-90)"
     stroke="#7592ff"
     id="rect12"
     style="fill:none" /><g
     id="g31"
     transform="translate(-142.70906,-187.24616)"><rect
       x="581.58356"
       y="199.43475"
       width="32.6255"
       height="132.562"
       rx="6.2627101"
       fill="#7592ff"
       id="rect17-6" /><rect
       x="581.58356"
       y="199.43475"
       width="32.6255"
       height="132.562"
       rx="6.2627101"
       stroke="#7592ff"
       id="rect18-1"
       style="fill:none" /><rect
       x="-221.69156"
       y="492.45554"
       width="32.6255"
       height="107.028"
       rx="6.2627101"
       transform="rotate(-90)"
       fill="#7592ff"
       id="rect19" /><rect
       x="-221.69156"
       y="492.45554"
       width="32.6255"
       height="107.028"
       rx="6.2627101"
       transform="rotate(-90)"
       stroke="#7592ff"
       id="rect20"
       style="fill:none" /><rect
       x="-343.42627"
       y="492.45554"
       width="30"
       height="107.028"
       rx="6.2627101"
       transform="rotate(-90)"
       fill="#7592ff"
       id="rect21" /><rect
       x="-343.42627"
       y="492.45554"
       width="30"
       height="107.028"
       rx="6.2627101"
       transform="rotate(-90)"
       stroke="#7592ff"
       id="rect22"
       style="fill:none" /><rect
       x="-282.02744"
       y="508.82056"
       width="32.6255"
       height="91.663803"
       rx="6.2627101"
       transform="rotate(-90)"
       fill="#7592ff"
       id="rect23" /><rect
       x="-282.02744"
       y="508.82056"
       width="32.6255"
       height="91.663803"
       rx="6.2627101"
       transform="rotate(-90)"
       stroke="#7592ff"
       id="rect24"
       style="fill:none" /></g></svg>
