<?xml version="1.0" encoding="UTF-8" standalone="no"?>
<svg
   width="472"
   height="158"
   viewBox="0 0 472 158"
   fill="none"
   version="1.1"
   id="svg18"
   xml:space="preserve"
   xmlns="http://www.w3.org/2000/svg"
   xmlns:svg="http://www.w3.org/2000/svg"><defs
     id="defs18" /><rect
     x="203.103"
     y="41.7015"
     width="22.1453"
     height="20.7141"
     rx="2.63433"
     fill="#465fff"
     stroke="#465fff"
     stroke-width="0.752667"
     id="rect1" /><rect
     x="246.752"
     y="41.7015"
     width="22.1453"
     height="20.7141"
     rx="2.63433"
     fill="#465fff"
     stroke="#465fff"
     stroke-width="0.752667"
     id="rect2" /><rect
     x="258.20099"
     y="98.230301"
     width="22.1453"
     height="20.7141"
     rx="2.63433"
     fill="#465fff"
     stroke="#465fff"
     stroke-width="0.752667"
     id="rect3" /><rect
     x="191.65401"
     y="98.230301"
     width="22.1453"
     height="20.7141"
     rx="2.63433"
     fill="#465fff"
     stroke="#465fff"
     stroke-width="0.752667"
     id="rect4" /><rect
     x="207.396"
     y="82.847"
     width="57.565498"
     height="20.7141"
     rx="2.63433"
     fill="#465fff"
     stroke="#465fff"
     stroke-width="0.752667"
     id="rect5" /><rect
     x="152.769"
     y="15.167"
     width="166.46201"
     height="130.311"
     rx="28"
     stroke="#465fff"
     stroke-width="24"
     id="rect6" /><rect
     x="0.040527299"
     y="0.522461"
     width="32.6255"
     height="77.595703"
     rx="6.2627101"
     fill="#465fff"
     id="rect7" /><rect
     x="0.040527299"
     y="0.522461"
     width="32.6255"
     height="77.595703"
     rx="6.2627101"
     stroke="#465fff"
     id="rect8" /><rect
     x="75.872597"
     y="3.16748"
     width="32.6255"
     height="154.31"
     rx="6.2627101"
     fill="#465fff"
     id="rect9" /><rect
     x="75.872597"
     y="3.16748"
     width="32.6255"
     height="154.31"
     rx="6.2627101"
     stroke="#465fff"
     id="rect10" /><rect
     x="-91.3442"
     y="16.7939"
     width="32.6255"
     height="77.595703"
     rx="6.2627101"
     transform="rotate(-90)"
     fill="#465fff"
     id="rect11" /><rect
     x="-91.3442"
     y="16.7939"
     width="32.6255"
     height="77.595703"
     rx="6.2627101"
     transform="rotate(-90)"
     stroke="#465fff"
     id="rect12" /><g
     id="g30"
     transform="translate(-331.69727,159.26367)"><path
       d="m 788.4707,-14.513672 v -12.30664 c 0,-3.469542 -2.79217,-6.263672 -6.26172,-6.263672 h -11.63671 v 12.308593 c 0,3.469542 2.79217,6.261719 6.26171,6.261719 z"
       style="fill:#465fff;fill-opacity:1;stroke:#465fff"
       id="path30" /><path
       d="m 788.4707,-14.513672 h -11.63672 c -3.46954,0 -6.26171,-2.792177 -6.26171,-6.261719 v -12.308593 h -82.86524 c -3.46954,0 -6.26367,2.79413 -6.26367,6.263672 v 17.4746089 c 0,3.4695414 2.79413,6.2617187 6.26367,6.2617187 h 94.50195 c 3.46955,0 6.26172,-2.7921773 6.26172,-6.2617187 z"
       style="fill:#465fff;fill-opacity:1;stroke:#465fff"
       id="path29" /><path
       d="m 770.57227,-64.482422 h 12.63671 c 3.46955,0 6.26368,-2.792177 6.26368,-6.261719 v -20.101562 c 0,-3.469542 -2.79413,-6.261719 -6.26368,-6.261719 h -12.63671 z"
       style="fill:#465fff;fill-opacity:1;stroke:#465fff"
       id="path28" /><path
       d="m 770.57227,-64.482422 v -32.625 h -66.50196 c -3.46954,0 -6.26172,2.792177 -6.26172,6.261719 v 20.101562 c 0,3.469542 2.79218,6.261719 6.26172,6.261719 z"
       style="fill:#465fff;fill-opacity:1;stroke:#465fff"
       id="path27" /><path
       d="m 788.4707,-147.07617 v 15.99609 c 0,3.46954 -2.79217,6.26172 -6.26172,6.26172 h -11.63671 v 27.710938 h 12.63671 c 3.46955,0 6.26368,2.792177 6.26368,6.261719 v 20.101562 c 0,3.469542 -2.79413,6.261719 -6.26368,6.261719 h -12.63671 v 31.398438 h 11.63671 c 3.46955,0 6.26172,2.79413 6.26172,6.263672 v 12.30664 h 8.46289 c 3.46955,0 6.26368,-2.792177 6.26368,-6.261719 V -140.8125 c 0,-3.46954 -2.79413,-6.26367 -6.26368,-6.26367 z"
       style="fill:#465fff;fill-opacity:1;stroke:#465fff"
       id="path26" /><path
       d="m 788.4707,-147.07617 h -11.63672 c -3.46954,0 -6.26171,2.79413 -6.26171,6.26367 v 15.99414 h 11.63671 c 3.46955,0 6.26172,-2.79218 6.26172,-6.26172 z"
       style="fill:#465fff;fill-opacity:1;stroke:#465fff"
       id="path25" /><path
       d="m 687.70703,-157.44336 c -3.46954,0 -6.26367,2.79413 -6.26367,6.26367 v 20.09961 c 0,3.46954 2.79413,6.26172 6.26367,6.26172 h 82.86524 v -15.99414 c 0,-3.46954 2.79217,-6.26367 6.26171,-6.26367 h 11.63672 v -4.10352 c 0,-3.46954 -2.79217,-6.26367 -6.26172,-6.26367 z"
       style="fill:#465fff;fill-opacity:1;stroke:#465fff"
       id="path24" /></g></svg>
