<?xml version="1.0" encoding="UTF-8" standalone="no"?>
<!-- Created with Inkscape (http://www.inkscape.org/) -->

<svg
   width="104.10527mm"
   height="30.931444mm"
   viewBox="0 0 104.10527 30.931444"
   version="1.1"
   id="svg1"
   xmlns="http://www.w3.org/2000/svg"
   xmlns:svg="http://www.w3.org/2000/svg">
  <defs
     id="defs1" />
  <g
     id="layer1"
     transform="translate(-50.841526,-111.96515)">
    <path
       d="m 135.07824,112.06437 c -1.65364,0 -2.48046,0.82682 -2.48046,2.48047 l 0.0248,15.00683 c 0.0496,1.62058 0.8599,2.43086 2.43086,2.43086 l 14.93242,-0.0248 v 5.10976 h -12.30312 c -1.63711,0 -2.46394,0.82683 -2.48047,2.48047 -0.0331,1.63711 0.81028,2.46393 2.53008,2.48047 h 14.73398 c 1.65365,0 2.48047,-0.82682 2.48047,-2.48047 v -15.08125 c 0,-1.62057 -0.82682,-2.43086 -2.48047,-2.43086 l -14.70918,0.0248 -0.0744,-4.98574 14.60996,-0.0248 c 1.65364,0 2.48873,-0.82682 2.50527,-2.48047 -0.0661,-1.52135 -0.90124,-2.34817 -2.50527,-2.48047 z"
       style="font-size:50.8px;font-family:'Inconsolata Nerd Font';-inkscape-font-specification:'Inconsolata Nerd Font';stroke-width:0.264583"
       id="path4" />
    <path
       d="m 125.23078,112.06437 -17.38808,0.0248 c -1.65365,0 -2.48047,0.82683 -2.48047,2.48047 v 24.90391 c 0,1.63711 0.82682,2.45566 2.48047,2.45566 h 5.03535 c 1.65365,0 2.48047,-0.85989 2.48047,-2.57969 l -0.0744,-9.79785 1.73633,0.0248 5.72989,11.1373 c 0.77721,1.45521 1.89342,1.80248 3.34863,1.0418 1.47174,-0.76068 1.87689,-1.90996 1.21543,-3.44785 l -4.48965,-8.70645 2.30684,0.0248 c 1.65364,0 2.48046,-0.85163 2.48046,-2.55489 l 0.0496,-12.47675 c 0,-1.68672 -0.81028,-2.53008 -2.43086,-2.53008 z m -7.4414,4.86172 -0.0248,7.63984 h -7.4414 v -7.59023 z"
       style="font-size:50.8px;font-family:'Inconsolata Nerd Font';-inkscape-font-specification:'Inconsolata Nerd Font';stroke-width:0.264583"
       id="path3" />
    <path
       d="m 80.532737,111.96515 c -1.620573,0 -2.430859,0.79375 -2.430859,2.38125 l -0.02481,25.10234 c 0,1.65365 0.826823,2.48047 2.480469,2.48047 h 15.03164 c 1.438672,0 2.224154,-0.82682 2.356446,-2.48047 -0.06615,-1.65364 -0.909506,-2.48047 -2.530079,-2.48047 h -7.366992 l -0.0248,-19.86855 7.416601,0.0248 v 2.35645 c 0,1.55443 0.835091,2.33991 2.505274,2.35645 1.653645,-0.0331 2.480473,-0.8351 2.480473,-2.40606 v -5.03535 c 0,-1.62057 -0.826828,-2.43086 -2.480473,-2.43086 z"
       style="font-size:50.8px;font-family:'Inconsolata Nerd Font';-inkscape-font-specification:'Inconsolata Nerd Font';stroke-width:0.264583"
       id="path2" />
    <path
       d="m 70.710081,112.06437 -17.388086,0.0248 c -1.653646,0 -2.480469,0.82683 -2.480469,2.48047 v 24.90391 c 0,1.63711 0.826823,2.45566 2.480469,2.45566 h 5.035351 c 1.653646,0 2.480469,-0.85989 2.480469,-2.57969 l -0.07441,-9.79785 9.847461,0.0744 c 1.653646,0 2.480469,-0.85163 2.480469,-2.55489 l 0.04961,-12.47675 c 0,-1.68672 -0.810286,-2.53008 -2.430859,-2.53008 z m -7.416602,4.88652 -0.04961,7.61504 h -7.441406 v -7.59023 z"
       style="font-size:50.8px;font-family:'Inconsolata Nerd Font';-inkscape-font-specification:'Inconsolata Nerd Font';stroke-width:0.264583"
       id="path1" />
  </g>
</svg>
